<?xml version="1.0" encoding="UTF-8" standalone="no"?>
<!DOCTYPE svg PUBLIC "-//W3C//DTD SVG 1.1//EN" "http://www.w3.org/Graphics/SVG/1.1/DTD/svg11.dtd">
<svg width="100%" height="100%" viewBox="0 0 1920 900" version="1.1" xmlns="http://www.w3.org/2000/svg" xmlns:xlink="http://www.w3.org/1999/xlink" xml:space="preserve" xmlns:serif="http://www.serif.com/" style="fill-rule:evenodd;clip-rule:evenodd;">
    <g transform="matrix(1,0,0,1,-3.00963,-267.857)">
        <g transform="matrix(3.51445,0.0946446,-0.0946446,3.51445,-303.476,-471.388)">
            <circle cx="158.914" cy="280.786" r="3.556"/>
        </g>
        <g transform="matrix(3.51445,0.0946446,-0.0946446,3.51445,-393.225,-503.489)">
            <circle cx="158.914" cy="280.786" r="3.556"/>
        </g>
        <g transform="matrix(3.51445,0.0946446,-0.0946446,3.51445,-486.451,-493.501)">
            <circle cx="158.914" cy="280.786" r="3.556"/>
        </g>
        <g transform="matrix(3.51445,0.0946446,-0.0946446,3.51445,-303.476,-471.388)">
            <circle cx="185.379" cy="290.475" r="3.556"/>
        </g>
        <g transform="matrix(3.51445,0.0946446,-0.0946446,3.51445,-303.476,-471.388)">
            <circle cx="211.864" cy="293.832" r="3.556"/>
        </g>
        <g transform="matrix(3.51445,0.0946446,-0.0946446,3.51445,-303.476,-471.388)">
            <circle cx="238.337" cy="297.256" r="3.556"/>
        </g>
        <g transform="matrix(3.51445,0.0946446,-0.0946446,3.51445,-303.476,-471.388)">
            <circle cx="264.818" cy="293.832" r="3.556"/>
        </g>
        <g transform="matrix(3.51445,0.0946446,-0.0946446,3.51445,-303.476,-471.388)">
            <circle cx="291.299" cy="287.183" r="3.556"/>
        </g>
        <g transform="matrix(3.51445,0.0946446,-0.0946446,3.51445,-307.49,-444.97)">
            <circle cx="317.78" cy="283.955" r="3.556"/>
        </g>
        <g transform="matrix(3.51445,0.0946446,-0.0946446,3.51445,-302.938,-450.454)">
            <circle cx="344.257" cy="283.955" r="3.556"/>
        </g>
        <g transform="matrix(3.51445,0.0946446,-0.0946446,3.51445,-303.476,-471.388)">
            <circle cx="370.737" cy="280.786" r="3.556"/>
        </g>
        <g transform="matrix(3.51445,0.0946446,-0.0946446,3.51445,-303.476,-471.388)">
            <circle cx="397.218" cy="271.621" r="3.556"/>
        </g>
        <g transform="matrix(3.51445,0.0946446,-0.0946446,3.51445,-303.476,-471.388)">
            <circle cx="423.684" cy="268.673" r="3.556"/>
        </g>
        <g transform="matrix(3.51445,0.0946446,-0.0946446,3.51445,-303.476,-471.388)">
            <circle cx="450.172" cy="260.125" r="3.556"/>
        </g>
        <g transform="matrix(3.51445,0.0946446,-0.0946446,3.51445,-303.476,-471.388)">
            <circle cx="476.641" cy="251.987" r="3.556"/>
        </g>
        <g transform="matrix(3.51445,0.0946446,-0.0946446,3.51445,-303.476,-471.388)">
            <circle cx="503.13" cy="246.77" r="3.556"/>
        </g>
        <g transform="matrix(3.51445,0.0946446,-0.0946446,3.51445,-303.476,-471.388)">
            <circle cx="529.614" cy="246.77" r="3.556"/>
        </g>
        <g transform="matrix(3.51445,0.0946446,-0.0946446,3.51445,-303.476,-471.388)">
            <circle cx="556.088" cy="249.358" r="3.556"/>
        </g>
        <g transform="matrix(3.51445,0.0946446,-0.0946446,3.51445,-233.49,-437.132)">
            <circle cx="556.088" cy="249.358" r="3.556"/>
        </g>
        <g transform="matrix(3.51445,0.0946446,-0.0946446,3.51445,-172.87,-398.504)">
            <circle cx="556.088" cy="249.358" r="3.556"/>
        </g>
        <g transform="matrix(3.51445,0.0946446,-0.0946446,3.51445,-110.42,-370.617)">
            <circle cx="556.088" cy="249.358" r="3.556"/>
        </g>
        <g transform="matrix(3.51445,0.0946446,-0.0946446,3.51445,-39.3558,-376.411)">
            <circle cx="556.088" cy="249.358" r="3.556"/>
        </g>
    </g>
    <g transform="matrix(2.34077,0,0,2.34077,-633.305,-1076.84)">
        <g transform="matrix(8.60509,-7.6211e-31,1.90528e-31,8.60509,801.866,647.057)">
            <path id="s2" d="M-5.709,0C-5.709,0 -5.709,0 -5.709,0C-5.709,3.132 -3.132,5.709 0,5.709C3.132,5.709 5.709,3.132 5.709,0L0,0L-5.709,0Z" style="fill:rgb(128,128,128);fill-rule:nonzero;"/>
        </g>
        <g transform="matrix(8.58835,-7.58666e-31,1.90157e-31,8.5662,801.87,647.522)">
            <path id="s0" d="M5.212,0C5.212,0 5.212,0 5.212,0C5.212,-2.859 2.859,-5.212 0,-5.212C-2.859,-5.212 -5.212,-2.859 -5.212,0C-5.212,0 -5.212,0 -5.212,0L0,0L5.212,0Z" style="fill:none;fill-rule:nonzero;stroke:rgb(128,128,128);stroke-width:1px;"/>
        </g>
    </g>
    <g transform="matrix(8.00371,-7.08849e-31,1.77212e-31,8.00371,1375.42,645.235)">
        <rect id="label" x="-5.799" y="-1.78" width="1.78" height="1.78" style="fill:rgb(128,128,128);fill-rule:nonzero;stroke:rgb(64,64,64);stroke-width:0.12px;stroke-linejoin:round;stroke-miterlimit:1.41421;"/>
        <path d="M6.372,-9.609L4.818,-9.488C4.679,-10.101 4.482,-10.547 4.227,-10.825C3.805,-11.27 3.284,-11.493 2.665,-11.493C2.167,-11.493 1.73,-11.354 1.354,-11.076C0.862,-10.718 0.475,-10.194 0.191,-9.505C-0.093,-8.817 -0.24,-7.836 -0.252,-6.563C0.124,-7.135 0.584,-7.561 1.128,-7.839C1.672,-8.116 2.242,-8.255 2.839,-8.255C3.88,-8.255 4.767,-7.872 5.499,-7.105C6.231,-6.338 6.597,-5.347 6.597,-4.132C6.597,-3.333 6.425,-2.591 6.081,-1.905C5.736,-1.22 5.263,-0.694 4.661,-0.33C4.06,0.035 3.377,0.217 2.613,0.217C1.311,0.217 0.249,-0.262 -0.573,-1.22C-1.395,-2.177 -1.806,-3.756 -1.806,-5.955C-1.806,-8.414 -1.351,-10.203 -0.443,-11.319C0.35,-12.292 1.418,-12.778 2.76,-12.778C3.762,-12.778 4.582,-12.497 5.221,-11.936C5.861,-11.374 6.244,-10.599 6.372,-9.609ZM-0.009,-4.123C-0.009,-3.585 0.106,-3.07 0.334,-2.578C0.563,-2.086 0.883,-1.712 1.293,-1.454C1.704,-1.196 2.135,-1.068 2.587,-1.068C3.247,-1.068 3.814,-1.334 4.288,-1.866C4.763,-2.399 5,-3.122 5,-4.036C5,-4.916 4.766,-5.609 4.297,-6.115C3.828,-6.622 3.238,-6.875 2.526,-6.875C1.82,-6.875 1.221,-6.622 0.729,-6.115C0.237,-5.609 -0.009,-4.945 -0.009,-4.123Z" style="fill:rgb(128,128,128);fill-rule:nonzero;stroke:rgb(64,64,64);stroke-width:0.12px;stroke-linejoin:round;stroke-miterlimit:1.41421;"/>
    </g>
</svg>
