<?xml version="1.0" encoding="UTF-8" standalone="no"?>
<!DOCTYPE svg PUBLIC "-//W3C//DTD SVG 1.1//EN" "http://www.w3.org/Graphics/SVG/1.1/DTD/svg11.dtd">
<svg width="100%" height="100%" viewBox="0 0 425 150" version="1.1" xmlns="http://www.w3.org/2000/svg" xmlns:xlink="http://www.w3.org/1999/xlink" xml:space="preserve" xmlns:serif="http://www.serif.com/" style="fill-rule:evenodd;clip-rule:evenodd;stroke-linejoin:round;stroke-miterlimit:2;">
    <g transform="matrix(74.0917,0,0,74.0917,127.411,148.444)">
        <path d="M0.297,-0.646L0.591,0L0.502,0L0.43,-0.159L0.166,-0.159L0.094,0L0.006,0L0.297,-0.646ZM0.297,-0.452L0.197,-0.23L0.397,-0.23L0.297,-0.452Z" style="fill:rgb(204,204,204);fill-rule:nonzero;"/>
    </g>
    <g transform="matrix(74.0917,0,0,74.0917,172.162,148.444)">
        <path d="M0.085,-0.622L0.21,-0.622C0.281,-0.622 0.338,-0.605 0.381,-0.572C0.424,-0.539 0.446,-0.496 0.446,-0.443C0.446,-0.389 0.423,-0.345 0.377,-0.309C0.331,-0.272 0.262,-0.255 0.169,-0.256L0.169,0L0.085,0L0.085,-0.622ZM0.169,-0.548L0.169,-0.33C0.233,-0.331 0.28,-0.34 0.311,-0.357C0.342,-0.375 0.357,-0.403 0.357,-0.441C0.357,-0.47 0.345,-0.495 0.322,-0.516C0.299,-0.537 0.248,-0.548 0.169,-0.548Z" style="fill:rgb(204,204,204);fill-rule:nonzero;"/>
    </g>
    <g transform="matrix(74.0917,0,0,74.0917,209.208,148.444)">
        <path d="M0.445,-0.553L0.376,-0.498C0.358,-0.516 0.341,-0.531 0.327,-0.54C0.312,-0.549 0.29,-0.554 0.262,-0.554C0.232,-0.554 0.207,-0.547 0.188,-0.533C0.169,-0.519 0.16,-0.501 0.16,-0.48C0.16,-0.461 0.168,-0.444 0.185,-0.43C0.201,-0.415 0.229,-0.4 0.269,-0.382C0.309,-0.365 0.34,-0.349 0.363,-0.334C0.385,-0.32 0.403,-0.303 0.418,-0.285C0.432,-0.268 0.442,-0.249 0.449,-0.229C0.456,-0.209 0.46,-0.188 0.46,-0.166C0.46,-0.114 0.441,-0.07 0.404,-0.034C0.366,0.003 0.32,0.021 0.267,0.021C0.215,0.021 0.169,0.007 0.129,-0.022C0.089,-0.05 0.059,-0.093 0.037,-0.15L0.122,-0.174C0.153,-0.104 0.2,-0.069 0.264,-0.069C0.295,-0.069 0.321,-0.078 0.341,-0.097C0.362,-0.115 0.372,-0.138 0.372,-0.167C0.372,-0.184 0.367,-0.201 0.356,-0.218C0.345,-0.235 0.332,-0.249 0.316,-0.26C0.3,-0.271 0.275,-0.283 0.24,-0.298C0.205,-0.312 0.178,-0.325 0.159,-0.337C0.14,-0.349 0.124,-0.363 0.11,-0.379C0.097,-0.396 0.087,-0.412 0.08,-0.428C0.074,-0.445 0.071,-0.462 0.071,-0.481C0.071,-0.525 0.089,-0.563 0.125,-0.595C0.16,-0.626 0.204,-0.642 0.255,-0.642C0.289,-0.642 0.323,-0.634 0.358,-0.62C0.393,-0.605 0.422,-0.583 0.445,-0.553Z" style="fill:rgb(204,204,204);fill-rule:nonzero;"/>
    </g>
    <g transform="matrix(74.0917,0,0,74.0917,266.694,148.444)">
        <path d="M0.027,-0.622L0.407,-0.622L0.407,-0.537L0.259,-0.537L0.259,0L0.175,0L0.175,-0.537L0.027,-0.537L0.027,-0.622Z" style="fill:rgb(204,204,204);fill-rule:nonzero;"/>
    </g>
    <g transform="matrix(74.0917,0,0,74.0917,299.145,148.444)">
        <path d="M0.078,-0.622L0.213,-0.622C0.28,-0.622 0.335,-0.605 0.377,-0.572C0.419,-0.539 0.44,-0.496 0.44,-0.444C0.44,-0.402 0.426,-0.365 0.399,-0.334C0.372,-0.302 0.329,-0.279 0.271,-0.266L0.452,0L0.355,0L0.182,-0.256L0.163,-0.256L0.163,0L0.078,0L0.078,-0.622ZM0.163,-0.547L0.163,-0.33C0.288,-0.327 0.351,-0.364 0.351,-0.439C0.351,-0.465 0.344,-0.487 0.329,-0.504C0.314,-0.52 0.295,-0.532 0.271,-0.538C0.246,-0.544 0.21,-0.547 0.163,-0.547Z" style="fill:rgb(204,204,204);fill-rule:nonzero;"/>
    </g>
    <g transform="matrix(74.0917,0,0,74.0917,336.191,148.444)">
        <rect x="0.063" y="-0.622" width="0.084" height="0.622" style="fill:rgb(204,204,204);fill-rule:nonzero;"/>
    </g>
    <g transform="matrix(74.0917,0,0,74.0917,352.435,148.444)">
        <path d="M0.297,-0.646L0.591,0L0.502,0L0.43,-0.159L0.166,-0.159L0.094,0L0.006,0L0.297,-0.646ZM0.297,-0.452L0.197,-0.23L0.397,-0.23L0.297,-0.452Z" style="fill:rgb(204,204,204);fill-rule:nonzero;"/>
    </g>
    <g transform="matrix(74.0917,0,0,74.0917,397.187,148.444)">
        <path d="M0.077,-0.622L0.161,-0.622L0.161,-0.084L0.364,-0.084L0.364,0L0.077,0L0.077,-0.622Z" style="fill:rgb(204,204,204);fill-rule:nonzero;"/>
    </g>
    <g transform="matrix(0.784842,0,0,0.555805,-170.629,-239.831)">
        <g transform="matrix(178.787,0,0,288,206.319,653.97)">
            <path d="M0.062,-0.386C0.062,-0.441 0.072,-0.491 0.093,-0.538C0.113,-0.585 0.143,-0.626 0.182,-0.661C0.221,-0.696 0.268,-0.723 0.324,-0.743C0.381,-0.763 0.444,-0.772 0.515,-0.772C0.577,-0.772 0.634,-0.766 0.686,-0.754C0.738,-0.741 0.786,-0.722 0.831,-0.696L0.76,-0.579C0.746,-0.588 0.731,-0.596 0.714,-0.603C0.696,-0.609 0.678,-0.615 0.658,-0.62C0.638,-0.625 0.618,-0.628 0.597,-0.631C0.576,-0.633 0.555,-0.635 0.535,-0.635C0.485,-0.635 0.441,-0.629 0.402,-0.616C0.364,-0.604 0.331,-0.587 0.304,-0.565C0.278,-0.543 0.258,-0.517 0.244,-0.487C0.23,-0.456 0.223,-0.423 0.223,-0.386C0.223,-0.348 0.23,-0.314 0.245,-0.282C0.259,-0.251 0.28,-0.223 0.307,-0.2C0.334,-0.177 0.367,-0.16 0.406,-0.147C0.446,-0.134 0.49,-0.127 0.54,-0.127C0.562,-0.127 0.584,-0.129 0.606,-0.132C0.629,-0.136 0.65,-0.14 0.671,-0.146C0.691,-0.151 0.711,-0.158 0.73,-0.166C0.75,-0.174 0.768,-0.183 0.784,-0.192L0.855,-0.075C0.814,-0.049 0.766,-0.028 0.711,-0.012C0.656,0.003 0.598,0.01 0.537,0.01C0.458,0.01 0.389,0 0.33,-0.02C0.271,-0.041 0.221,-0.069 0.182,-0.104C0.142,-0.14 0.112,-0.182 0.092,-0.23C0.072,-0.279 0.062,-0.331 0.062,-0.386Z" style="fill:rgb(0,162,0);fill-rule:nonzero;"/>
        </g>
        <g transform="matrix(90.9902,0,0,146.572,370.311,601.621)">
            <path d="M0.108,-0.763L0.497,-0.763C0.555,-0.763 0.606,-0.757 0.649,-0.745C0.692,-0.733 0.728,-0.715 0.756,-0.692C0.784,-0.669 0.805,-0.641 0.819,-0.607C0.833,-0.574 0.84,-0.537 0.84,-0.495C0.84,-0.466 0.836,-0.439 0.83,-0.414C0.823,-0.388 0.812,-0.365 0.798,-0.343C0.784,-0.322 0.766,-0.303 0.745,-0.286C0.723,-0.269 0.698,-0.255 0.669,-0.244L0.835,0L0.646,0L0.502,-0.217L0.498,-0.217L0.263,-0.217L0.263,0L0.108,0L0.108,-0.763ZM0.5,-0.351C0.53,-0.351 0.555,-0.354 0.577,-0.361C0.599,-0.368 0.618,-0.378 0.633,-0.39C0.647,-0.403 0.658,-0.418 0.666,-0.435C0.673,-0.453 0.677,-0.473 0.677,-0.495C0.677,-0.537 0.662,-0.57 0.633,-0.594C0.604,-0.617 0.559,-0.628 0.5,-0.628L0.263,-0.628L0.263,-0.351L0.5,-0.351Z" style="fill:rgb(0,162,0);fill-rule:nonzero;"/>
        </g>
        <g transform="matrix(90.9902,0,0,146.572,453.526,601.621)">
            <path d="M0.108,-0.763L0.758,-0.763L0.758,-0.627L0.263,-0.627L0.263,-0.475L0.702,-0.475L0.702,-0.348L0.263,-0.348L0.263,-0.135L0.769,-0.135L0.769,0L0.108,0L0.108,-0.763Z" style="fill:rgb(0,162,0);fill-rule:nonzero;"/>
        </g>
        <g transform="matrix(90.9902,0,0,146.572,529.233,601.621)">
            <path d="M0.369,-0.763L0.533,-0.763L0.902,0L0.739,0L0.678,-0.128L0.232,-0.128L0.173,0L0.01,0L0.369,-0.763ZM0.617,-0.256L0.452,-0.603L0.292,-0.256L0.617,-0.256Z" style="fill:rgb(0,162,0);fill-rule:nonzero;"/>
        </g>
        <g transform="matrix(90.9902,0,0,146.572,612.226,601.621)">
            <path d="M0.338,-0.627L0.057,-0.627L0.057,-0.763L0.775,-0.763L0.775,-0.627L0.493,-0.627L0.493,0L0.338,0L0.338,-0.627Z" style="fill:rgb(0,162,0);fill-rule:nonzero;"/>
        </g>
        <g transform="matrix(90.9902,0,0,146.572,687.888,601.621)">
            <path d="M0.108,-0.763L0.758,-0.763L0.758,-0.627L0.263,-0.627L0.263,-0.475L0.702,-0.475L0.702,-0.348L0.263,-0.348L0.263,-0.135L0.769,-0.135L0.769,0L0.108,0L0.108,-0.763Z" style="fill:rgb(0,162,0);fill-rule:nonzero;"/>
        </g>
    </g>
</svg>
